<?xml version="1.0" standalone="no"?>
<!DOCTYPE svg PUBLIC "-//W3C//DTD SVG 20010904//EN"
 "http://www.w3.org/TR/2001/REC-SVG-20010904/DTD/svg10.dtd">
<svg version="1.0" xmlns="http://www.w3.org/2000/svg"
 width="707.000000pt" height="707.000000pt" viewBox="0 0 707.000000 707.000000"
 preserveAspectRatio="xMidYMid meet">
<metadata>
Created by potrace 1.11, written by Peter Selinger 2001-2013
</metadata>
<g transform="translate(0.000000,707.000000) scale(0.100000,-0.100000)"
fill="#000000" stroke="none">
<path d="M3398 6955 c-2 -2 -34 -6 -73 -9 -38 -4 -81 -8 -95 -11 -14 -2 -43
-7 -65 -10 -245 -34 -455 -87 -705 -178 -96 -35 -331 -136 -340 -146 -3 -3
-12 -7 -20 -9 -8 -2 -16 -8 -18 -13 -2 -5 -12 -9 -23 -9 -10 0 -19 -4 -19 -10
0 -5 -4 -10 -9 -10 -13 0 -175 -92 -179 -102 -2 -4 -8 -8 -13 -8 -10 0 -116
-68 -137 -88 -8 -6 -22 -17 -33 -22 -25 -14 -152 -109 -164 -124 -5 -6 -25
-23 -44 -36 -70 -49 -267 -240 -376 -364 -33 -37 -65 -73 -70 -80 -99 -109
-274 -366 -374 -551 -18 -33 -36 -64 -39 -70 -4 -5 -7 -12 -8 -15 0 -3 -21
-48 -46 -100 -69 -142 -165 -395 -193 -510 -3 -8 -13 -46 -23 -85 -10 -38 -18
-86 -18 -105 2 -67 45 -137 106 -170 24 -13 32 -16 83 -23 57 -9 155 44 182
99 8 17 30 85 49 150 19 66 42 139 51 164 8 25 18 52 20 60 21 85 224 505 255
530 4 3 10 12 14 20 30 64 169 257 279 387 122 145 353 358 503 465 32 23 61
46 62 50 2 4 8 8 12 8 5 0 30 15 57 33 229 156 575 312 856 387 64 17 127 33
140 35 12 3 56 11 97 20 99 19 191 33 281 42 87 9 502 9 574 0 48 -6 101 -13
175 -23 19 -3 46 -7 60 -10 14 -2 39 -7 55 -10 17 -3 48 -10 70 -16 22 -6 49
-12 60 -13 11 -2 47 -10 80 -19 302 -83 607 -221 874 -394 97 -64 160 -74 236
-37 28 13 94 78 96 94 0 3 3 15 6 26 10 36 6 104 -8 137 -12 31 -70 98 -84 98
-3 0 -25 13 -48 29 -141 96 -349 206 -532 280 -71 30 -139 57 -150 62 -43 18
-261 87 -295 93 -8 2 -22 6 -30 9 -16 6 -143 34 -195 43 -16 2 -50 9 -75 14
-49 10 -105 18 -190 26 -30 3 -66 8 -80 11 -26 6 -556 13 -562 8z"/>
<path d="M5874 6034 c-32 -12 -228 -202 -1023 -998 l-983 -983 -62 19 c-94 30
-271 27 -331 -4 -11 -6 -21 -10 -23 -9 -1 1 -22 -7 -47 -18 -80 -35 -168 -111
-222 -191 -180 -266 -102 -625 172 -793 103 -63 169 -80 306 -80 99 1 212 34
289 86 119 81 212 215 243 352 14 58 15 185 3 233 -3 12 -8 30 -10 40 -2 9
-10 32 -18 51 l-14 35 974 975 c538 538 983 991 994 1012 34 65 22 159 -28
218 -46 55 -148 81 -220 55z m-2164 -2352 c127 -50 127 -237 0 -291 -175 -75
-310 157 -158 273 46 34 100 40 158 18z"/>
<path d="M3507 5944 c-1 -1 -33 -4 -72 -7 -71 -6 -109 -11 -180 -23 -22 -4
-49 -8 -60 -9 -11 -2 -60 -13 -110 -25 -49 -12 -97 -23 -105 -25 -70 -16 -246
-85 -390 -152 -52 -24 -97 -47 -100 -51 -3 -4 -25 -18 -50 -31 -69 -37 -206
-128 -235 -157 -53 -53 -72 -158 -40 -221 43 -86 144 -135 230 -112 26 8 132
70 180 106 53 40 284 152 395 191 231 83 428 115 690 116 102 0 246 -10 272
-19 7 -2 31 -6 53 -9 105 -14 310 -70 390 -106 11 -5 53 -23 94 -40 41 -18
102 -47 135 -66 88 -48 132 -55 196 -34 81 27 125 79 136 161 13 94 -36 172
-141 224 -33 16 -63 34 -66 38 -3 5 -9 8 -13 8 -3 -1 -20 6 -37 14 -51 27
-252 105 -269 105 -9 0 -20 4 -25 9 -6 5 -64 22 -130 39 -109 28 -157 38 -222
47 -13 2 -40 6 -60 9 -93 15 -148 19 -301 20 -89 2 -163 2 -165 0z"/>
<path d="M1595 5019 c-118 -36 -220 -132 -267 -249 -29 -73 -32 -244 -5 -287
5 -7 6 -13 3 -13 -3 0 7 -22 22 -49 93 -169 269 -252 456 -217 21 4 48 11 60
15 11 5 26 10 31 11 21 5 102 66 138 105 90 95 131 259 97 385 -64 235 -306
371 -535 299z m168 -311 c47 -24 63 -57 57 -112 -5 -49 -81 -97 -120 -76 -10
5 -20 7 -22 4 -3 -3 -17 9 -32 26 -70 84 22 209 117 158z"/>
<path d="M3638 4935 c-1 -1 -43 -6 -93 -9 -98 -7 -124 -10 -200 -28 -27 -6
-51 -11 -52 -10 -4 2 -163 -55 -208 -74 -22 -10 -42 -18 -45 -19 -12 -2 -111
-61 -189 -113 -73 -49 -241 -203 -293 -269 -79 -102 -170 -262 -219 -385 -23
-58 -64 -217 -75 -293 -10 -63 -11 -337 -1 -390 4 -22 10 -53 13 -70 13 -73
37 -162 50 -187 9 -16 13 -28 10 -28 -3 0 4 -21 15 -47 101 -236 235 -416 424
-570 193 -156 473 -272 725 -298 94 -9 286 -5 355 9 17 4 46 9 65 12 51 7 199
54 242 75 20 10 47 33 60 51 113 158 -19 354 -211 314 -19 -4 -38 -9 -44 -13
-16 -10 -110 -34 -162 -41 -63 -9 -256 -9 -315 0 -77 12 -143 30 -197 54 -29
12 -53 21 -53 19 0 -3 -23 9 -50 25 -28 17 -53 30 -56 30 -13 0 -137 98 -192
153 -101 99 -224 302 -248 408 -2 11 -6 27 -8 37 -2 9 -10 37 -17 62 -15 56
-20 304 -6 362 50 215 130 378 250 508 27 30 149 135 183 158 67 46 218 113
284 127 8 2 15 4 15 5 0 2 27 8 70 14 22 4 54 9 72 12 42 6 191 6 223 -1 55
-12 108 -18 165 -18 82 -1 133 31 170 107 23 47 26 63 21 108 -9 70 -35 111
-98 152 -25 17 -34 19 -99 30 -19 3 -45 8 -59 11 -14 3 -63 8 -110 11 -47 3
-90 7 -97 9 -6 2 -13 2 -15 0z"/>
<path d="M1458 3955 c-2 -2 -19 -5 -38 -7 -43 -6 -69 -17 -94 -40 -11 -10 -23
-18 -27 -18 -13 0 -47 -86 -50 -125 -1 -22 -7 -45 -11 -52 -5 -6 -5 -14 0 -17
5 -3 6 -25 3 -48 -10 -66 1 -407 13 -426 2 -4 7 -32 11 -62 4 -30 8 -57 10
-60 2 -3 6 -24 10 -48 14 -95 94 -351 148 -472 82 -185 175 -346 287 -495 116
-155 216 -260 396 -415 79 -69 273 -198 394 -263 212 -113 538 -224 740 -252
19 -3 45 -7 58 -9 100 -20 434 -27 587 -12 44 5 82 10 85 11 6 4 83 16 115 19
11 1 29 5 40 9 11 3 31 8 45 11 14 3 52 12 85 21 33 9 67 18 75 20 19 4 156
53 195 70 17 7 55 23 85 35 155 63 448 242 542 329 9 9 31 27 49 41 61 46 237
228 316 327 87 109 180 250 240 363 22 41 46 86 54 100 7 14 14 30 15 35 2 6
14 38 29 72 40 96 24 179 -47 238 -65 55 -139 65 -215 29 -61 -29 -75 -47
-133 -174 -24 -52 -49 -102 -56 -110 -6 -8 -17 -30 -25 -47 -8 -18 -17 -33
-21 -33 -5 0 -8 -5 -8 -10 0 -15 -108 -170 -175 -250 -31 -37 -215 -220 -260
-259 -213 -181 -613 -371 -880 -417 -16 -3 -41 -7 -55 -10 -52 -10 -78 -13
-160 -20 -116 -10 -269 -10 -365 0 -119 11 -140 14 -140 16 0 1 -11 3 -25 6
-91 16 -142 28 -240 58 -47 15 -89 28 -95 30 -5 1 -27 10 -49 19 -21 9 -40 17
-42 17 -13 0 -182 86 -253 129 -46 28 -86 51 -87 51 -2 0 -12 6 -21 14 -10 8
-47 37 -83 63 -94 70 -199 167 -301 279 -72 80 -248 334 -231 334 4 0 2 4 -3
8 -30 21 -162 334 -179 426 -2 12 -9 33 -14 47 -6 14 -13 43 -16 63 -4 21 -8
41 -10 45 -4 7 -17 95 -31 218 -7 57 -8 224 -2 348 5 101 -10 147 -66 197 -26
24 -110 61 -119 53z"/>
<path d="M6797 3913 c-15 -7 -27 -11 -27 -8 0 3 -15 -9 -34 -26 -65 -58 -68
-74 -71 -353 -2 -138 -6 -267 -9 -287 -2 -20 -7 -56 -10 -80 -3 -24 -10 -71
-16 -104 -5 -33 -12 -76 -15 -95 -3 -19 -9 -51 -15 -70 -5 -19 -23 -89 -40
-155 -18 -66 -54 -181 -82 -255 -50 -137 -214 -480 -229 -480 -4 0 -11 -10
-15 -22 -14 -44 -202 -309 -288 -407 -87 -98 -158 -171 -290 -296 -12 -11 -41
-36 -66 -55 -25 -19 -47 -37 -50 -41 -10 -12 -136 -105 -210 -154 -41 -28 -76
-53 -78 -57 -2 -5 -8 -8 -13 -8 -5 0 -26 -11 -47 -24 -134 -84 -437 -222 -609
-276 -90 -29 -192 -58 -223 -63 -14 -3 -56 -12 -94 -21 -39 -9 -85 -19 -103
-21 -18 -2 -48 -7 -65 -10 -77 -12 -97 -15 -173 -22 -99 -9 -467 -9 -555 0
-157 16 -176 18 -190 23 -8 3 -33 8 -55 11 -22 3 -69 12 -105 20 -36 7 -76 16
-90 19 -14 3 -72 19 -130 35 -246 72 -492 180 -713 314 -114 70 -127 77 -146
92 -9 6 -54 40 -101 74 -173 126 -397 340 -529 504 -40 50 -80 99 -89 110 -30
37 -169 250 -202 310 -50 90 -138 269 -161 328 -12 29 -26 63 -32 77 -5 14
-11 30 -13 35 -1 6 -12 36 -23 67 -68 179 -290 198 -374 33 -20 -40 -26 -92
-15 -130 5 -16 11 -34 12 -40 4 -12 8 -25 48 -130 43 -110 177 -386 227 -465
23 -36 44 -72 48 -80 26 -58 234 -339 340 -460 48 -55 216 -224 289 -291 74
-68 250 -204 354 -274 58 -38 106 -73 108 -77 2 -5 8 -8 13 -8 4 0 48 -23 96
-52 175 -103 564 -274 688 -302 6 -2 42 -12 80 -23 99 -29 163 -45 285 -68
110 -21 131 -25 175 -30 22 -3 56 -7 75 -10 211 -28 625 -28 827 0 18 3 50 7
70 10 43 6 135 22 173 31 14 3 36 7 50 9 14 2 34 7 45 9 48 13 111 28 125 31
8 2 40 11 70 20 254 80 396 137 590 234 133 67 157 81 301 171 39 25 79 50 88
55 9 6 23 16 31 22 8 7 44 34 80 60 160 116 440 376 555 517 22 27 48 58 57
70 10 11 23 28 30 36 50 58 228 316 228 331 0 5 5 9 10 9 6 0 10 5 10 11 0 5
18 40 40 76 57 95 164 319 210 438 4 11 13 34 20 50 23 55 69 195 64 195 -3 0
0 9 6 21 6 11 13 30 15 41 3 11 11 44 19 72 8 28 17 62 20 76 3 14 10 43 16
65 6 22 12 54 15 70 2 17 6 39 8 50 7 29 19 103 23 139 2 17 6 49 9 71 4 22 8
63 10 90 2 28 4 50 6 50 1 0 3 109 4 242 3 250 0 277 -40 337 -45 67 -164 103
-228 69z"/>
<path d="M299 3771 c-66 -21 -158 -80 -191 -122 -13 -17 -31 -39 -40 -51 -40
-48 -62 -129 -62 -228 0 -206 113 -356 309 -411 115 -32 237 -11 343 58 194
129 244 390 112 589 -40 61 -117 123 -190 154 -74 31 -202 36 -281 11z m176
-318 c11 -6 27 -24 36 -40 44 -75 -32 -171 -114 -144 -46 16 -65 38 -73 89 -6
39 -4 45 29 76 38 36 79 42 122 19z"/>
</g>
</svg>
